<svg xmlns="http://www.w3.org/2000/svg" viewBox="0 0 512 512"><g xmlns="http://www.w3.org/2000/svg"><circle cx="256" cy="256" r="256" fill="#b0e7f2" data-original="#7584f2"/><path fill="#b0e7f2" d="M512 256c0-15.5-1.378-30.677-4.017-45.418l-84.247-84.247-335.472 259.33 122.318 122.318A257.563 257.563 0 0 0 256 512c141.385 0 256-114.615 256-256z" data-original="#4253ce"/><path fill="#22aac5" d="M88.264 126.335h335.472v259.33H88.264z" data-original="#e9edf5"/><path fill="#22aac5" d="M256.12 126.335h167.616v259.33H256.12z" data-original="#cdd2e1"/><path fill="#fff" d="M124.177 163.86h263.647v184.28H124.177z" data-original="#ffffff"/><path fill="#22aac5" d="M256.12 163.86h131.703v184.28H256.12z" data-original="#e9edf5"/><path fill="#0e4651" d="M357.184 436.294l-33.143-21.828-33.143 21.828V335.036h66.286z" data-original="#ff6c52"/><path fill="#0e4651" d="M323.986 335.036l.055 79.43 33.143 21.828V335.036z" data-original="#ff432e"/><path fill="#22aac5" d="M152.587 190.012h86.856v30h-86.856zM152.587 291.989h86.856v30h-86.856zM152.587 241h213.067v30H152.587z" data-original="#cdd2e1"/><path fill="#fff" d="M256.12 241h109.534v30H256.12z" data-original="#afb4c8"/><circle cx="324.041" cy="329.201" r="50.26" fill="#ffce00" data-original="#ffce00"/><path fill="#fdba12" d="M324.041 278.941l-.055.001v100.516l.055.001c27.758 0 50.259-22.502 50.259-50.26 0-27.756-22.502-50.258-50.259-50.258z" data-original="#fdba12"/></g></svg>