<svg xmlns="http://www.w3.org/2000/svg" viewBox="0 0 512 512"><path xmlns="http://www.w3.org/2000/svg" fill="#22aac5" d="M256 512c-68.379 0-132.668-26.629-181.02-74.98C26.63 388.668 0 324.379 0 256S26.629 123.332 74.98 74.98C123.332 26.63 187.621 0 256 0s132.668 26.629 181.02 74.98C485.37 123.332 512 187.621 512 256s-26.629 132.668-74.98 181.02C388.668 485.37 324.379 512 256 512zm0 0" data-original="#b9e969"/><path xmlns="http://www.w3.org/2000/svg" fill="#b0e7f2" d="M256.004 0v512c68.379 0 132.664-26.629 181.016-74.98C485.37 388.668 512 324.379 512 256s-26.629-132.668-74.98-181.02C388.668 26.63 324.383 0 256.004 0zm0 0" data-original="#73c570"/><path xmlns="http://www.w3.org/2000/svg" fill="#fff" d="M187.035 202.016l13.18-4.844a61.24 61.24 0 0 0 37.351-39.32l17.239-55.528c5.027-16.187 22.422-25.035 38.465-19.558 13.226 4.515 21.605 17.539 20.226 31.449l-7.18 72.52 51.122-11.087a46.37 46.37 0 0 1 32.035 4.61 46.375 46.375 0 0 1 24.156 40.703v103.39a46.359 46.359 0 0 1-18.672 37.184l-3.242 2.418a91.852 91.852 0 0 1-66.387 17.457l-150.46-19.031zm0 0" data-original="#ffffff"/><path xmlns="http://www.w3.org/2000/svg" fill="#f0f6fe" d="M389.473 180.258a46.349 46.349 0 0 0-32.036-4.61l-51.12 11.086 7.18-72.52c1.378-13.91-7-26.933-20.224-31.448C278.32 77.66 262.2 85 256.003 99.129V372.64l69.325 8.77a91.85 91.85 0 0 0 66.387-17.462l3.246-2.414a46.377 46.377 0 0 0 18.672-37.187V220.957a46.375 46.375 0 0 0-24.16-40.7zm0 0" data-original="#f0f6fe"/><path xmlns="http://www.w3.org/2000/svg" fill="#0e4651" d="M133.633 362.383l41.23-.004 12.172-160.363H133.63c-11.043 0-20 8.953-20 20v120.367c0 11.047 8.957 20.004 20.004 20zm0 0" data-original="#5877a6"/></svg>