<svg xmlns="http://www.w3.org/2000/svg" viewBox="0 0 150 150"><circle xmlns="http://www.w3.org/2000/svg" cx="75" cy="75" r="64" fill="#b0e7f2" data-original="#334d5c"/><circle xmlns="http://www.w3.org/2000/svg" cx="90.771" cy="103.51" r="10.384" fill="#22aac5" data-original="#27a2db" transform="rotate(-9.25 90.807 103.678)"/><path xmlns="http://www.w3.org/2000/svg" fill="#22aac5" d="M100.746 106.405a10.385 10.385 0 1 1-17.819-9.694 10.151 10.151 0 0 0-.416 2.9 10.383 10.383 0 0 0 18.235 6.794z" data-original="#1c75a1"/><path xmlns="http://www.w3.org/2000/svg" fill="#fff" d="M89.472 98.26l-30.52-21-2.965 4.078 30.484 20.97a1.2 1.2 0 0 0 .852.221 3.713 3.713 0 0 0 2.7-3.353 1.231 1.231 0 0 0-.551-.916z" data-original="#e1e6e9"/><circle xmlns="http://www.w3.org/2000/svg" cx="54.961" cy="74.771" r="14.454" fill="#156a7b" data-original="#e56353" transform="rotate(-9.25 54.972 74.885)"/><path xmlns="http://www.w3.org/2000/svg" fill="#156a7b" d="M68.847 78.8a14.456 14.456 0 1 1-24.8-13.494 14.154 14.154 0 0 0-.578 4.038A14.452 14.452 0 0 0 68.847 78.8z" data-original="#d15241"/><path xmlns="http://www.w3.org/2000/svg" fill="#fff" d="M90.1 43.864L56.729 68.117a1.615 1.615 0 0 0-.63 1.626 3.614 3.614 0 0 0 1.829 2.568 1.619 1.619 0 0 0 1.742-.1l33.389-24.27z" data-original="#e1e6e9"/><circle xmlns="http://www.w3.org/2000/svg" cx="90.771" cy="46.49" r="10.384" fill="#0e4651" data-original="#fcd462" transform="rotate(-9.25 90.839 46.6)"/><path xmlns="http://www.w3.org/2000/svg" fill="#0e4651" d="M100.746 49.384a10.385 10.385 0 1 1-17.819-9.694 10.153 10.153 0 0 0-.416 2.9 10.383 10.383 0 0 0 18.235 6.793z" data-original="#f7be56"/></svg>