<?xml version="1.0"?>
<svg xmlns="http://www.w3.org/2000/svg" xmlns:xlink="http://www.w3.org/1999/xlink" xmlns:svgjs="http://svgjs.com/svgjs" version="1.1" width="512" height="512" x="0" y="0" viewBox="0 0 512 512" style="enable-background:new 0 0 512 512" xml:space="preserve" class=""><g><circle xmlns="http://www.w3.org/2000/svg" cx="256" cy="256" fill="#b0e7f2" r="256" data-original="#00c8c8" style="" class=""/><path xmlns="http://www.w3.org/2000/svg" d="m511.789 266.488-194.099-194.098-92.755 90.935 56.255 56.255v25.436l-40.441-40.441-1.078 3.363-32.43-32.43-2.365 16.842-32.642-32.642-5.935 38.218-31.865-31.865-20.887 100.414 23.89 23.89.203 8.413-20.471-20.47-17.102 136.377 88.283 88.283c21.551 5.888 44.233 9.032 67.65 9.032 137.872 0 250.288-108.99 255.789-245.512z" fill="#b0e7f2" data-original="#00a0aa" style="" class=""/><path xmlns="http://www.w3.org/2000/svg" d="m405.765 274.132c-9.28.107-16.747 7.661-16.747 16.941v49.877c0 .019-.015.035-.034.036l-4.866.338c-22.467 1.562-40.531 18.786-43.793 40.505l-10.627.092c3.101-25.667 23.093-46.538 48.759-50.547.018-.003.03-.018.03-.035v-40.855c0-.408.011-.814.032-1.217.54-10.247 9.673-22.729 19.934-22.794.166-.001.086-68.947.034-90.525-.017-7.059-5.745-12.765-12.804-12.765h-.034c-7.072 0-12.805 5.733-12.805 12.805v95.984h-8.692v-105.171c0-7.072-5.733-12.805-12.805-12.805h-.919c-7.073 0-12.805 5.733-12.805 12.805v112.527h-8.692v-96.43c0-7.072-5.733-12.805-12.805-12.805h-.92c-7.072 0-12.805 5.733-12.805 12.805v105.624h-8.692v-75.55c0-7.072-5.733-12.805-12.805-12.805s-12.805 5.733-12.805 12.805v171.563h.2c1.43 16.177 10.874 30.047 24.336 37.62.011.006.018.018.018.031 0 0 0 39.876.001 87.191 38.744-5.556 74.688-19.775 105.8-40.65 0-26.287 0-44.346 0-44.346 0-.014.008-.027.021-.033 14.379-6.427 24.43-20.856 24.43-37.598v-95.677c-.002-9.433-7.707-17.049-17.14-16.941z" fill="#22aac5" data-original="#ffdecf" style="" class=""/><path xmlns="http://www.w3.org/2000/svg" d="m378.457 331.375c.018-.003.03-.018.03-.035v-40.855c0-.408.011-.814.032-1.217.54-10.247 9.673-22.729 19.934-22.794.166-.001.086-68.947.034-90.525-.017-7.059-5.745-12.765-12.804-12.765h-.034c-7.072 0-12.805 5.733-12.805 12.805v95.984h-8.692v-105.172c0-7.072-5.733-12.805-12.805-12.805h-.919c-7.073 0-12.805 5.733-12.805 12.805v112.527h-.123v79.833c8.678-14.529 23.501-25.06 40.957-27.786z" fill="#22aac5" data-original="#ffbeaa" style="" class=""/><path xmlns="http://www.w3.org/2000/svg" d="m405.765 274.132c-9.28.107-16.747 7.661-16.747 16.941v49.877c0 .019-.015.035-.034.036l-4.866.338c-22.467 1.562-40.531 18.786-43.793 40.505l-2.824.024v116.858c21.768-7.303 42.239-17.43 60.952-29.986 0-26.287 0-44.346 0-44.346 0-.014.008-.027.021-.033 14.379-6.427 24.43-20.856 24.43-37.598v-95.677c-.001-9.431-7.706-17.047-17.139-16.939z" fill="#22aac5" data-original="#ffbeaa" style="" class=""/><path xmlns="http://www.w3.org/2000/svg" d="m231.098 200.167c-7.072 0-12.805 5.733-12.805 12.805v75.55h-8.692v-105.624c0-7.072-5.733-12.805-12.805-12.805h-.92c-7.072 0-12.805 5.733-12.805 12.805v96.43h-8.692v-112.527c0-7.072-5.733-12.805-12.805-12.805h-.919c-7.072 0-12.805 5.733-12.805 12.805v105.171h-8.692v-95.984c0-7.072-5.733-12.805-12.805-12.805h-.034c-7.059 0-12.787 5.706-12.804 12.765-.053 21.578-.132 90.524.034 90.525 10.261.064 19.393 12.547 19.934 22.794.021.403.032.809.032 1.217v40.855c0 .018.013.033.03.035 25.666 4.01 45.658 24.881 48.759 50.547l-10.627-.092c-3.262-21.719-21.326-38.943-43.793-40.505l-4.866-.338c-.019-.001-.034-.017-.034-.036v-49.877c0-9.281-7.466-16.834-16.747-16.941-9.433-.109-17.138 7.508-17.138 16.941v95.677c0 16.741 10.05 31.17 24.43 37.598.013.006.021.018.021.033v44.346c31.111 20.875 67.056 35.095 105.8 40.65.001-47.316.001-87.191.001-87.191 0-.013.007-.025.018-.031 13.462-7.573 22.906-21.443 24.336-37.62h.2v-171.563c-.002-7.072-5.735-12.805-12.807-12.805z" fill="#22aac5" data-original="#ffdecf" style="" class=""/><path xmlns="http://www.w3.org/2000/svg" d="m243.903 212.972c0-7.072-5.733-12.805-12.805-12.805s-12.805 5.733-12.805 12.805v75.55h-8.692v-105.624c0-7.072-5.733-12.805-12.805-12.805h-.92c-7.072 0-12.805 5.733-12.805 12.805v96.43h-8.689v79.64c4.147 6.882 6.918 14.665 7.92 22.954l-7.92-.069v116.819c14.458 4.859 29.483 8.484 44.965 10.704.001-47.316.001-87.191.001-87.191 0-.013.007-.025.018-.031 13.462-7.573 22.906-21.443 24.336-37.62h.2z" fill="#22aac5" data-original="#ffbeaa" style="" class=""/><path xmlns="http://www.w3.org/2000/svg" d="m183.656 99.267c0-21.686 17.58-39.267 39.267-39.267 13.891 0 26.097 7.213 33.077 18.098 6.981-10.885 19.187-18.098 33.077-18.098 21.686 0 39.267 17.58 39.267 39.267 0 37.029-72.344 89.515-72.344 89.515s-72.344-50.947-72.344-89.515z" fill="#0e4651" data-original="#f03049" style="" class=""/><path xmlns="http://www.w3.org/2000/svg" d="m289.077 60c-13.891 0-26.097 7.213-33.077 18.097v110.684s72.344-52.486 72.344-89.515c0-21.686-17.58-39.266-39.267-39.266z" fill="#0e4651" data-original="#bd002f" style="" class=""/></g></svg>
