<?xml version="1.0"?>
<svg xmlns="http://www.w3.org/2000/svg" xmlns:xlink="http://www.w3.org/1999/xlink" xmlns:svgjs="http://svgjs.com/svgjs" version="1.1" width="512" height="512" x="0" y="0" viewBox="0 0 512 512" style="enable-background:new 0 0 512 512" xml:space="preserve" class=""><g><linearGradient xmlns="http://www.w3.org/2000/svg" id="SVGID_1_" gradientUnits="userSpaceOnUse" x1="256" x2="256" y1="512" y2="0"><stop stop-opacity="1" stop-color="#ffc8d1" offset="0"/><stop stop-opacity="1" stop-color="#66d0e5" offset="0"/><stop stop-opacity="1" stop-color="#66d0e5" offset="0.3696105072463768"/><stop stop-opacity="1" stop-color="#b0e7f2" offset="1"/></linearGradient><linearGradient xmlns="http://www.w3.org/2000/svg" id="SVGID_2_" gradientUnits="userSpaceOnUse" x1="256" x2="256" y1="105" y2="407"><stop stop-opacity="1" stop-color="#fd3a84" offset="0"/><stop stop-opacity="1" stop-color="#22aac5" offset="0"/></linearGradient><g xmlns="http://www.w3.org/2000/svg"><g><circle cx="256" cy="256" fill="url(#SVGID_1_)" r="256" data-original="url(#SVGID_1_)" style=""/></g><g><g><path d="m300.412 193.823c-26.413 0-35.46 32.042-35.833 33.404-2.116 7.72-15.041 7.72-17.157 0-.373-1.362-9.42-33.404-35.833-33.404-20.254 0-35.529 17.704-35.529 41.185 0 27.74 23.611 48.445 62.74 82.734 5.482 4.806 11.224 9.837 17.201 15.163 5.977-5.326 11.719-10.357 17.201-15.163 39.129-34.289 62.74-54.994 62.74-82.734-.001-23.48-15.276-41.185-35.53-41.185zm-44.412-88.823c-83.263 0-151 67.737-151 151s67.737 151 151 151 151-67.737 151-151-67.737-151-151-151zm28.911 226.101c-7.217 6.332-14.902 13.063-22.969 20.324-1.691 1.518-3.817 2.281-5.942 2.281s-4.25-.763-5.942-2.281c-8.067-7.26-15.752-13.991-22.969-20.324-41.428-36.31-68.795-60.294-68.795-96.092 0-33.604 22.909-58.95 53.294-58.95 22.778 0 36.614 14.408 44.412 27.202 7.798-12.794 21.633-27.202 44.412-27.202 30.386 0 53.294 25.346 53.294 58.95 0 35.798-27.367 59.782-68.795 96.092z" fill="url(#SVGID_2_)" data-original="url(#SVGID_2_)" style=""/></g></g></g></g></svg>
