<svg xmlns="http://www.w3.org/2000/svg" viewBox="0 0 73 73"><circle cx="36.8" cy="36.9" r="35.4" fill="#fff"/><path fill="#7fb056" d="M36.8 8.2c-16.1 0-29.2 13-29.2 29.2 0 16.1 13.1 29.2 29.2 29.2S66 53.5 66 37.4C66 21.2 52.9 8.2 36.8 8.2zm-.2 55.2c-14.3 0-25.9-11.6-26-25.9 0-14.3 11.6-25.9 25.9-25.9 14.3 0 26 11.6 26 25.9.1 14.2-11.6 25.9-25.9 25.9z"/><path fill="#c0cd06" d="M51.1 33c0-7.6-6.4-13.7-14.3-13.7S22.5 25.4 22.5 33c0 2.6.7 5 2.1 7.1l12.3 18.2 12.2-18.2c1.3-2.1 2-4.5 2-7.1z"/><path fill="#004e42" d="M42 27.3c-3.2-.8-4.8 1.3-5.1 1.9-.3-.5-1.9-2.6-5.1-1.9-3.7.9-3.6 5.9-1.6 9 1.9 3 5.2 5.4 7.2 6.8v.1-.2c2-1.4 4.8-3.7 6.7-6.8 1.9-3 1.5-8-2.1-8.9z"/></svg>