<svg xmlns="http://www.w3.org/2000/svg" viewBox="0 0 512 512"><g xmlns="http://www.w3.org/2000/svg"><circle cx="256" cy="256" r="256" fill="#b0e7f2" data-original="#dae9fa"/><path fill="#b0e7f2" d="M337.414 106.934L216.841 227.507l53.708 53.708-120.958 120.959 109.783 109.783c131.635-1.703 239.3-102.742 251.465-231.598L337.414 106.934z" data-original="#afc5f4"/><path fill="#fff" d="M372.016 380.266C372.016 414.437 312.32 433 256 433s-116.016-18.563-116.016-52.734c0-25.524 34.383-45.563 87.749-51.258h56.532c53.368 5.694 87.751 25.734 87.751 51.258z" data-original="#61d7a8"/><path fill="#fff" d="M372.016 380.266C372.016 414.437 312.32 433 256 433V329.008h28.266c53.367 5.694 87.75 25.734 87.75 51.258z" data-original="#00ab94"/><path fill="#22aac5" d="M256 73c-63.915 0-116.016 52.804-116.016 116.719 0 47.039 15.82 59.765 116.016 209.53 100.829-151.031 116.016-162.703 116.016-209.53C372.016 125.804 319.915 73 256 73z" data-original="#ff641a"/><path fill="#22aac5" d="M372.016 189.719c0 46.827-15.187 58.5-116.016 209.53V73c63.915 0 116.016 52.804 116.016 116.719z" data-original="#f03800"/><path fill="#0e4651" d="M282.156 136.984c-11.601 0-20.249 5.273-26.156 12.024-5.907-6.75-14.555-12.024-26.156-12.024-20.671 0-36.703 17.086-36.703 39.023 0 27.001 23.625 42.188 62.859 76.148 39.445-34.172 62.859-49.359 62.859-76.148 0-21.937-16.031-39.023-36.703-39.023z" data-original="#ffda2d"/><path fill="#0e4651" d="M256 252.155V149.008c5.907-6.75 14.555-12.024 26.156-12.024 20.671 0 36.703 17.086 36.703 39.023 0 26.79-23.414 41.977-62.859 76.148z" data-original="#fdbf00"/></g></svg>