<svg xmlns="http://www.w3.org/2000/svg" viewBox="0 0 512 512"><path xmlns="http://www.w3.org/2000/svg" fill="#b0e7f2" d="M512 256c0 141.387-114.613 256-256 256S0 397.387 0 256 114.613 0 256 0s256 114.613 256 256zm0 0" data-original="#00d7df"/><path xmlns="http://www.w3.org/2000/svg" fill="#b0e7f2" d="M511.52 271.496L342.023 102 253.5 185.508l34.383 34.402v28.27L102 410l95.203 95.203C216.086 509.645 235.766 512 256 512c136.18 0 247.508-106.336 255.52-240.504zm0 0" data-original="#00b6bd"/><path xmlns="http://www.w3.org/2000/svg" fill="#896648" d="M385.336 358.867H210.883v-24.062c0-48.098 39.129-87.227 87.226-87.227s87.227 39.129 87.227 87.227zm0 0" data-original="#896648"/><path xmlns="http://www.w3.org/2000/svg" fill="#896648" d="M298.11 247.578c-.403 0-.801.012-1.204.016v111.273h88.43v-24.062c0-48.098-39.129-87.227-87.227-87.227zm0 0" data-original="#73543a"/><path xmlns="http://www.w3.org/2000/svg" fill="#66bd21" d="M287.883 147.117h18.047v110.086h-18.047zm0 0" data-original="#10bb66"/><path xmlns="http://www.w3.org/2000/svg" fill="#66bd21" d="M296.906 147.117h9.024v110.086h-9.024zm0 0" data-original="#0ca655"/><path xmlns="http://www.w3.org/2000/svg" fill="#66bd21" d="M314.953 156.14h-27.07v-27.07c0-14.925 12.144-27.07 27.07-27.07h27.07v27.07c0 14.926-12.144 27.07-27.07 27.07zm0 0" data-original="#66bd21"/><path xmlns="http://www.w3.org/2000/svg" fill="#6dcd24" d="M305.93 198.25h-21.055c-24.879 0-45.117-20.238-45.117-45.117v-21.055h21.054c24.88 0 45.118 20.238 45.118 45.117zm0 0" data-original="#6dcd24"/><path xmlns="http://www.w3.org/2000/svg" fill="#66bd21" d="M314.953 230.133h-27.07v-27.07c0-14.926 12.144-27.07 27.07-27.07h27.07v27.07c0 14.925-12.144 27.07-27.07 27.07zm0 0" data-original="#66bd21"/><path xmlns="http://www.w3.org/2000/svg" fill="#fedbab" d="M323.191 410H219.305c-38.145 0-69.18-31.035-69.18-69.18v-75.195h58.746c11.805 0 22.969 4.531 31.438 12.758l24.02 23.336h54.835c16.27 0 29.762 13.23 30.07 29.496a29.385 29.385 0 0 1-.265 4.59l29.027-9.91c7.578-2.333 15.586-.965 21.965 3.75C406.34 334.359 410 341.609 410 349.543c0 9.23-5.082 17.629-13.258 21.914zm0 0" data-original="#fedbab"/><path xmlns="http://www.w3.org/2000/svg" fill="#fedbab" d="M150.125 340.82c0 38.145 31.035 69.18 69.18 69.18H323.19l73.551-38.543A24.669 24.669 0 0 0 410 349.543c0-4.195-1.031-8.191-2.937-11.73H150.125zm0 0" data-original="#fec478"/><path xmlns="http://www.w3.org/2000/svg" fill="#0e4651" d="M168.172 410H102V265.625h66.172zm0 0" data-original="#3c3a41"/><path xmlns="http://www.w3.org/2000/svg" fill="#0e4651" d="M102 337.813h66.172V410H102zm0 0" data-original="#2b292c"/><path xmlns="http://www.w3.org/2000/svg" fill="#fedbab" d="M231.77 358.758c0 11.527 9.218 21.07 20.746 21.16.078.004.156.004.238.004.039 0 .082-.004.121-.004l.117.004h65.758c8.164 0 16.145-3.36 21.887-9.215 5.699-5.809 8.754-13.426 8.601-21.445a29.633 29.633 0 0 0-2.535-11.45H231.77zm0 0" data-original="#fea832"/><path xmlns="http://www.w3.org/2000/svg" fill="#fedbab" d="M348.617 337.813H231.77v15.359c5.617 5.613 13.078 8.7 20.984 8.7h.121l.117.003h65.758c8.164 0 16.145-3.36 21.887-9.215 4.105-4.183 6.832-9.312 7.98-14.848zm0 0" data-original="#fec478"/></svg>